<svg width="40" height="40" viewBox="0 0 40 40" fill="none" xmlns="http://www.w3.org/2000/svg">
<g id="back-svgrepo-com 1">
<g id="Group">
<g id="Group_2">
<path id="Vector" d="M30 21.6664H14.0233L17.845 25.488C18.4966 26.1397 18.4966 27.193 17.845 27.8447C17.52 28.1697 17.0933 28.333 16.6666 28.333C16.24 28.333 15.8132 28.1697 15.4882 27.8447L8.8216 21.178C8.66824 21.0247 8.5466 20.8414 8.4616 20.6364C8.29324 20.2297 8.29324 19.7697 8.4616 19.363C8.5466 19.158 8.66824 18.9747 8.8216 18.8214L15.4882 12.1547C16.1399 11.5031 17.1932 11.5031 17.8449 12.1547C18.4965 12.8064 18.4965 13.8597 17.8449 14.5114L14.0232 18.333H30C30.92 18.333 31.6666 19.0797 31.6666 19.9997C31.6666 20.9197 30.92 21.6664 30 21.6664Z" fill="#64748B"/>
</g>
</g>
</g>
</svg>
