<svg width="20" height="16" viewBox="0 0 20 16" fill="none" xmlns="http://www.w3.org/2000/svg">
<path id="delete" d="M11.8641 6.34345L10.8271 5.25353L10.827 5.25345C10.3859 4.79014 9.65993 4.79083 9.21885 5.25299C8.79012 5.70222 8.79012 6.4264 9.21885 6.87563L9.21911 6.8759L10.2889 7.99522L9.20202 9.13802C9.20167 9.13839 9.20132 9.13875 9.20097 9.13912C8.76734 9.59119 8.77376 10.3132 9.19767 10.7653L9.19764 10.7654L9.20202 10.7699C9.64496 11.2305 10.3716 11.2305 10.8146 10.7699L10.8165 10.7679L11.8716 9.6586L12.9085 10.7484L12.909 10.7489C13.35 11.2109 14.0756 11.2117 14.5167 10.7489C14.9462 10.2996 14.9461 9.57521 14.5165 9.126C14.5164 9.12593 14.5163 9.12586 14.5163 9.1258L13.4468 8.00682L14.5553 6.84231L14.5553 6.84232L14.5575 6.84003C14.9852 6.38497 14.9852 5.67144 14.5575 5.21638L14.5575 5.21636L14.5535 5.21226C14.1104 4.75142 13.3847 4.75209 12.9414 5.2118L12.9392 5.2141L11.8641 6.34345ZM6.24602 1.27822L6.2647 1.27962H6.28343H17.4978C18.581 1.27962 19.5 2.20796 19.5 3.40556V12.5963C19.5 13.7939 18.581 14.7223 17.4978 14.7223H6.73843V14.7091H6.23843C6.21792 14.7091 6.18907 14.7014 6.1607 14.676L0.559323 8.16716L0.550752 8.1572L0.54167 8.14771C0.517553 8.12249 0.496987 8.07907 0.500343 8.01327L0.501666 7.98733L0.500294 7.9614C0.497335 7.90545 0.51594 7.86137 0.54167 7.83447L0.550752 7.82497L0.559323 7.81501L6.16157 1.30515C6.17281 1.29514 6.18419 1.28879 6.19553 1.28466C6.20979 1.27946 6.22689 1.27678 6.24602 1.27822Z" stroke="white"/>
</svg>
