<svg width="18" height="18" viewBox="0 0 18 18" fill="none" xmlns="http://www.w3.org/2000/svg">
<g id="grid-alt" clip-path="url(#clip0_91_1259)">
<path id="Vector" d="M15.75 0.506348H2.24998C1.29373 0.506348 0.506226 1.29385 0.506226 2.2501V15.7501C0.506226 16.7063 1.29373 17.522 2.2781 17.522H15.7781C16.7344 17.522 17.55 16.7345 17.55 15.7501V2.2501C17.5219 1.29385 16.7062 0.506348 15.75 0.506348ZM6.69373 10.547V6.4126H11.3062V10.5188H6.69373V10.547ZM11.3062 11.8126V16.2563H6.69373V11.8126H11.3062ZM1.77185 6.4126H5.45623V10.5188H1.77185V6.4126ZM12.5719 6.4126H16.2562V10.5188H12.5719V6.4126ZM2.24998 1.77197H15.75C16.0312 1.77197 16.2562 1.99697 16.2562 2.27822V5.1751H1.77185V2.2501C1.77185 1.96885 1.96873 1.77197 2.24998 1.77197ZM1.77185 15.7501V11.8126H5.45623V16.2563H2.24998C1.96873 16.2563 1.77185 16.0313 1.77185 15.7501ZM15.75 16.2563H12.5719V11.8126H16.2562V15.7501C16.2562 16.0313 16.0312 16.2563 15.75 16.2563Z" fill="#DEE4EE"/>
</g>
<defs>
<clipPath id="clip0_91_1259">
<rect width="18" height="18" fill="white"/>
</clipPath>
</defs>
</svg>
