<svg width="18" height="18" viewBox="0 0 18 18" fill="none" xmlns="http://www.w3.org/2000/svg">
<g id="inbox">
<g id="Group 1000004188">
<path id="Vector" d="M17 4.25H1.16663V13.75H17V4.25Z" stroke="#DEE4EE" stroke-linecap="round" stroke-linejoin="round"/>
<path id="Vector_2" d="M17 7.41667C16.5841 7.41667 16.1724 7.33476 15.7882 7.17562C15.404 7.01648 15.0549 6.78322 14.7609 6.48918C14.4668 6.19512 14.2335 5.84603 14.0744 5.46183C13.9153 5.07763 13.8333 4.66585 13.8333 4.25H17V7.41667Z" stroke="#DEE4EE" stroke-linecap="round" stroke-linejoin="round"/>
<path id="Vector_3" d="M13.8333 13.7502C13.8333 12.9103 14.167 12.1048 14.7609 11.511C15.3547 10.9171 16.1601 10.5835 17 10.5835V13.7502H13.8333Z" stroke="#DEE4EE" stroke-linecap="round" stroke-linejoin="round"/>
<path id="Vector_4" d="M1.16663 10.5835C2.00648 10.5835 2.81193 10.9171 3.4058 11.511C3.99966 12.1048 4.33329 12.9103 4.33329 13.7502H1.16663V10.5835Z" stroke="#DEE4EE" stroke-linecap="round" stroke-linejoin="round"/>
<path id="Vector_5" d="M4.33329 4.25C4.33329 5.08986 3.99966 5.89531 3.4058 6.48918C2.81193 7.08304 2.00648 7.41667 1.16663 7.41667V4.25H4.33329Z" stroke="#DEE4EE" stroke-linecap="round" stroke-linejoin="round"/>
<path id="Vector_6" d="M9.08327 10.5832C9.95772 10.5832 10.6666 9.87429 10.6666 8.99984C10.6666 8.12539 9.95772 7.4165 9.08327 7.4165C8.20882 7.4165 7.49994 8.12539 7.49994 8.99984C7.49994 9.87429 8.20882 10.5832 9.08327 10.5832Z" stroke="#DEE4EE" stroke-linecap="round" stroke-linejoin="round"/>
</g>
</g>
</svg>
