<svg width="18" height="18" viewBox="0 0 18 18" fill="none" xmlns="http://www.w3.org/2000/svg">
<g id="invoice-1">
<g id="Group">
<path id="Vector" d="M15.8344 2.44678C15.8344 1.37803 14.9625 0.478027 13.8656 0.478027H4.13437C3.06562 0.478027 2.16562 1.3499 2.16562 2.44678V16.5655C2.16562 16.7905 2.30624 17.0155 2.50312 17.128C2.69999 17.2405 2.95312 17.2124 3.14999 17.0999L4.55624 16.1718L6.44062 17.4093C6.66562 17.5499 6.91874 17.5499 7.14374 17.4093L8.99999 16.1718L10.8562 17.4093C10.9687 17.4937 11.0812 17.5218 11.1937 17.5218C11.3062 17.5218 11.4469 17.4937 11.5312 17.4093L13.3875 16.1718L14.7937 17.128C14.9906 17.2687 15.2437 17.2687 15.4406 17.1562C15.6375 17.0437 15.7781 16.8187 15.7781 16.5937L15.8344 2.44678ZM14.0344 15.0468C13.6687 14.7937 13.1906 14.7937 12.825 15.0468L11.2219 16.1155L9.61874 15.0468C9.42187 14.9343 9.22499 14.8499 8.99999 14.8499C8.80312 14.8499 8.57812 14.9062 8.40937 15.0468L6.80624 16.1155L5.20312 15.0468C4.83749 14.7937 4.35937 14.7937 3.99374 15.0468L3.45937 15.3843V2.44678C3.45937 2.05303 3.76874 1.74365 4.16249 1.74365H13.9219C14.3156 1.74365 14.625 2.05303 14.625 2.44678V15.3843L14.0344 15.0468Z" fill="#DEE4EE"/>
<path id="Vector_2" d="M7.93124 3.74072H5.51249C5.17499 3.74072 4.89374 4.02197 4.89374 4.35947C4.89374 4.69697 5.17499 4.97822 5.51249 4.97822H7.93124C8.26874 4.97822 8.54999 4.69697 8.54999 4.35947C8.54999 4.02197 8.26874 3.74072 7.93124 3.74072Z" fill="#DEE4EE"/>
<path id="Vector_3" d="M12.3469 3.74072H11.6719C11.3344 3.74072 11.0531 4.02197 11.0531 4.35947C11.0531 4.69697 11.3344 4.97822 11.6719 4.97822H12.3469C12.6844 4.97822 12.9656 4.69697 12.9656 4.35947C12.9656 4.02197 12.6844 3.74072 12.3469 3.74072Z" fill="#DEE4EE"/>
<path id="Vector_4" d="M5.51249 8.69062H7.05936C7.39686 8.69062 7.67811 8.40938 7.67811 8.07188C7.67811 7.73438 7.39686 7.45312 7.05936 7.45312H5.51249C5.17499 7.45312 4.89374 7.73438 4.89374 8.07188C4.89374 8.40938 5.14686 8.69062 5.51249 8.69062Z" fill="#DEE4EE"/>
<path id="Vector_5" d="M12.3469 7.4248H11.6719C11.3344 7.4248 11.0531 7.70605 11.0531 8.04355C11.0531 8.38105 11.3344 8.6623 11.6719 8.6623H12.3469C12.6844 8.6623 12.9656 8.38105 12.9656 8.04355C12.9656 7.70605 12.6844 7.4248 12.3469 7.4248Z" fill="#DEE4EE"/>
<path id="Vector_6" d="M7.93124 11.0811H5.51249C5.17499 11.0811 4.89374 11.3623 4.89374 11.6998C4.89374 12.0373 5.17499 12.3186 5.51249 12.3186H7.93124C8.26874 12.3186 8.54999 12.0373 8.54999 11.6998C8.54999 11.3623 8.26874 11.0811 7.93124 11.0811Z" fill="#DEE4EE"/>
<path id="Vector_7" d="M12.3469 11.0811H11.6719C11.3344 11.0811 11.0531 11.3623 11.0531 11.6998C11.0531 12.0373 11.3344 12.3186 11.6719 12.3186H12.3469C12.6844 12.3186 12.9656 12.0373 12.9656 11.6998C12.9656 11.3623 12.6844 11.0811 12.3469 11.0811Z" fill="#DEE4EE"/>
</g>
</g>
</svg>
