<svg width="158" height="30" viewBox="0 0 158 30" fill="none" xmlns="http://www.w3.org/2000/svg">
<path d="M45.8264 26.4576C43.2344 25.3534 41.5611 23.1697 41.5395 20.3056H46.5811C47.4533 27.0638 58.4923 21.5057 51.4402 17.8003C49.869 17.1786 46.4852 16.3404 45.0872 15.6166C41.6446 14.2959 40.5775 9.44603 42.6499 6.45509C46.4914 1.08561 58.0562 2.47129 58.2819 9.9502H53.1042C53.0609 7.29949 49.1545 6.35611 47.3389 7.8655C44.7871 10.7173 48.406 12.836 51.2886 13.3773C65.0711 16.4115 57.218 31.2147 45.8264 26.4545V26.4576Z" fill="white"/>
<path d="M79.7971 19.1643H66.1817C66.1446 23.5625 72.5688 25.1616 74.3844 21.2149H79.46C78.0125 26.804 70.7439 28.9506 65.9281 26.173C61.3195 23.7729 60.2617 16.9992 62.5845 12.6751C67.7591 3.85693 81.9251 8.66347 79.7971 19.1643ZM75.0556 16.0032C75.0092 10.7265 66.491 10.7358 66.2126 16.0032H75.0556Z" fill="white"/>
<path d="M90.4371 9.00985C91.4114 8.45001 92.528 8.16855 93.7806 8.16855V13.1112C90.4 12.873 87.8823 13.8628 88.0648 17.7847V27.0638H83.3572V8.43764H88.0648V11.3296C88.671 10.3429 89.4597 9.56968 90.434 9.00985H90.4371Z" fill="white"/>
<path d="M114.12 19.1643H100.505C100.468 23.5625 106.892 25.1616 108.708 21.2149H113.783C112.336 26.804 105.067 28.9506 100.251 26.173C95.6426 23.7729 94.5848 16.9992 96.9077 12.6751C102.082 3.85693 116.248 8.66347 114.12 19.1643ZM109.379 16.0032C109.332 10.7265 100.814 10.7358 100.536 16.0032H109.379Z" fill="white"/>
<path d="M133.384 10.2718C136.727 13.0463 135.06 23.1666 135.434 27.0638H130.727V16.7764C130.754 14.0268 129.313 12.174 126.591 12.1709C123.848 12.1709 122.363 14.002 122.388 16.7764V27.0638H117.68V8.43768H122.388V10.7574C124.847 7.44173 130.696 7.35203 133.38 10.2687L133.384 10.2718Z" fill="white"/>
<path d="M143.337 26.173C132.836 19.2539 141.565 3.47028 153.188 9.33155C163.927 16.2011 154.895 32.0528 143.337 26.173ZM150.581 22.6439C156.516 18.8024 150.995 8.25208 144.865 13.668C141.323 17.6085 144.868 25.7493 150.581 22.6439Z" fill="white"/>
<path d="M5.16572 0.810368C4.99252 1.11039 4.99251 1.46919 5.16263 1.7723L16.2449 20.9645L15.0386 23.0584L1.72629 0C1.09532 1.33 -0.73884 3.30334 0.325157 4.84366C0.990156 5.98808 13.9499 28.4496 14.2066 28.8826C14.5437 29.5135 15.5273 29.5135 15.8676 28.8826L27.055 9.49556H29.4675L17.6399 29.9837C19.1029 29.8723 21.7319 30.4724 22.5299 28.7774L34.9236 7.3026C35.3072 6.70256 34.8154 5.83961 34.1009 5.86435H11.7198L10.6218 3.96525H35.7556C34.936 2.75279 34.1256 0.176298 32.2698 0.334041H5.99156C5.64515 0.334041 5.33893 0.510346 5.16263 0.810368H5.16572ZM18.342 17.3333L13.8169 9.49865H22.864L18.342 17.3333Z" fill="#1277DD"/>
</svg>
