<svg width="18" height="18" viewBox="0 0 18 18" fill="none" xmlns="http://www.w3.org/2000/svg">
<g id="invoice-1">
<g id="Group">
<path id="Vector" d="M11.35 0.506348C11.0125 0.506348 10.7031 0.787598 10.7031 1.15322V6.77822C10.7031 7.11572 10.9844 7.4251 11.35 7.4251H17.3687C17.5375 7.4251 17.7062 7.34072 17.8187 7.22822C17.9312 7.0876 17.9875 6.91885 17.9875 6.7501C17.7625 3.23447 14.8375 0.506348 11.35 0.506348ZM11.9687 6.10322V1.8001C14.3031 2.08135 16.1875 3.8251 16.6375 6.13135H11.9687V6.10322Z" fill="#DEE4EE"/>
<path id="Vector_2" d="M15.8781 8.6907H9.60625V2.64382C9.60625 2.30632 9.325 2.02507 8.9875 2.02507C8.90313 2.02507 8.81875 2.02507 8.73438 2.02507C4.45938 1.99695 1 5.48445 1 9.75945C1 14.0344 4.4875 17.5219 8.7625 17.5219C13.0375 17.5219 16.525 14.0344 16.525 9.75945C16.525 9.5907 16.525 9.42195 16.4969 9.28132C16.4969 8.94382 16.2156 8.6907 15.8781 8.6907ZM8.7625 16.2563C5.1625 16.2563 2.26562 13.3594 2.26562 9.75945C2.26562 6.3282 4.96563 3.48757 8.36875 3.2907V9.30945C8.36875 9.64695 8.65 9.95632 9.01562 9.95632H15.2875C15.175 13.4438 12.2781 16.2563 8.7625 16.2563Z" fill="#DEE4EE"/>
</g>
</g>
</svg>
